<?xml version="1.0" encoding="utf-8"?>
<!-- Generator: Adobe Illustrator 17.1.0, SVG Export Plug-In . SVG Version: 6.00 Build 0)  -->
<!DOCTYPE svg PUBLIC "-//W3C//DTD SVG 1.1//EN" "http://www.w3.org/Graphics/SVG/1.1/DTD/svg11.dtd">
<svg version="1.1" id="Layer_1" xmlns="http://www.w3.org/2000/svg" xmlns:xlink="http://www.w3.org/1999/xlink" x="0px" y="0px"
	 viewBox="0 0 424.4 75.1" enable-background="new 0 0 424.4 75.1" xml:space="preserve">
<g>
	<rect x="58.6" y="29.6" fill="#FF5000" width="7" height="7.2"/>
	<rect x="68.5" y="29.6" fill="#55565A" width="7" height="7.2"/>
	<rect x="78.3" y="29.6" fill="#FF5000" width="7" height="7.2"/>
	<rect x="49" y="29.6" fill="#FF5000" width="7" height="7.2"/>
	<rect x="39" y="29.6" fill="#55565A" width="7" height="7.2"/>
	<rect x="29.4" y="29.6" fill="#55565A" width="7" height="7.2"/>
	<rect x="19.7" y="29.6" fill="#FF5000" width="7" height="7.2"/>
	<rect x="9.7" y="29.6" fill="#FF5000" width="7" height="7.2"/>
	<rect x="0" y="29.6" fill="#FF5000" width="7" height="7.2"/>
	<rect x="58.6" y="19.6" fill="#FF5000" width="7" height="7.2"/>
	<rect x="68.5" y="19.6" fill="#FF5000" width="7" height="7.2"/>
	<rect x="39" y="19.6" fill="#FF5000" width="7" height="7.2"/>
	<rect x="29.4" y="19.6" fill="#FF5000" width="7" height="7.2"/>
	<rect x="9.7" y="19.6" fill="#FF5000" width="7" height="7.2"/>
	<rect x="0" y="19.6" fill="#FF5000" width="7" height="7.2"/>
	<rect x="68.5" y="9.9" fill="#FF5000" width="7" height="7.2"/>
	<rect x="39" y="9.9" fill="#FF5000" width="7" height="7.2"/>
	<rect x="29.4" y="9.9" fill="#FF5000" width="7" height="7.2"/>
	<rect x="0" y="9.9" fill="#FF5000" width="7" height="7.2"/>
	<rect x="29.4" y="0" fill="#FF5000" width="7" height="7.2"/>
	<rect x="58.6" y="49.4" fill="#55565A" width="7" height="7.2"/>
	<rect x="68.5" y="49.4" fill="#55565A" width="7" height="7.2"/>
	<rect x="78.3" y="49.4" fill="#55565A" width="7" height="7.2"/>
	<rect x="49" y="49.4" fill="#55565A" width="7" height="7.2"/>
	<rect x="39" y="49.4" fill="#55565A" width="7" height="7.2"/>
	<rect x="29.4" y="49.4" fill="#55565A" width="7" height="7.2"/>
	<rect x="19.7" y="49.4" fill="#55565A" width="7" height="7.2"/>
	<rect x="9.7" y="49.4" fill="#55565A" width="7" height="7.2"/>
	<rect x="0" y="49.4" fill="#55565A" width="7" height="7.2"/>
	<rect x="58.6" y="39.4" fill="#FF5000" width="7" height="7.2"/>
	<rect x="68.5" y="39.4" fill="#55565A" width="7" height="7.2"/>
	<rect x="78.3" y="39.4" fill="#FF5000" width="7" height="7.2"/>
	<rect x="49" y="39.4" fill="#FF5000" width="7" height="7.2"/>
	<rect x="39" y="39.4" fill="#55565A" width="7" height="7.2"/>
	<rect x="29.4" y="39.4" fill="#55565A" width="7" height="7.2"/>
	<rect x="19.7" y="39.4" fill="#55565A" width="7" height="7.2"/>
	<rect x="9.7" y="39.4" fill="#FF5000" width="7" height="7.2"/>
	<rect x="0" y="39.4" fill="#55565A" width="7" height="7.2"/>
</g>
<g>
	<defs>
		<rect id="SVGID_1_" x="15.3" y="-279.1" width="500" height="500"/>
	</defs>
	<clipPath id="SVGID_2_">
		<use xlink:href="#SVGID_1_"  overflow="visible"/>
	</clipPath>
	<path clip-path="url(#SVGID_2_)" fill="#55565A" d="M107.5,50.8c1.6,0.9,4.2,1.7,6.8,1.7c2.8,0,4.3-1.2,4.3-3
		c0-1.6-1.3-2.6-4.5-3.7c-4.5-1.6-7.4-4.1-7.4-8c0-4.6,3.9-8.1,10.2-8.1c3.1,0,5.3,0.6,6.9,1.4l-1.3,4.9c-1-0.5-3-1.3-5.6-1.3
		c-2.6,0-3.9,1.2-3.9,2.6c0,1.7,1.5,2.5,5,3.8c4.8,1.8,7,4.2,7,8.1c0,4.5-3.4,8.4-10.8,8.4c-3.1,0-6.1-0.9-7.6-1.7L107.5,50.8z"/>
	<path clip-path="url(#SVGID_2_)" fill="#55565A" d="M142.7,57.5c-8,0-12.7-6-12.7-13.7c0-8.1,5.2-14.1,13.1-14.1
		c8.3,0,12.8,6.2,12.8,13.6C155.9,52.2,150.6,57.5,142.7,57.5L142.7,57.5z M143,52.7c4.1,0,6.5-3.9,6.5-9.1c0-4.9-2.3-9-6.5-9
		c-4.2,0-6.5,4.1-6.5,9.1C136.4,48.7,138.9,52.7,143,52.7L143,52.7z"/>
	<path clip-path="url(#SVGID_2_)" fill="#55565A" d="M168.4,30.1v15.5c0,4.7,1.8,7,4.9,7c3.2,0,5-2.2,5-7V30.1h6.1v15.1
		c0,8.3-4.2,12.3-11.2,12.3c-6.8,0-10.7-3.8-10.7-12.3v-15H168.4z"/>
	<path clip-path="url(#SVGID_2_)" fill="#55565A" d="M192,57.1V30.1h7.1l5.6,9.9c1.6,2.8,3.2,6.2,4.4,9.2h0.1
		c-0.4-3.6-0.5-7.2-0.5-11.3v-7.8h5.6v26.9h-6.4l-5.8-10.4c-1.6-2.9-3.4-6.3-4.7-9.5h-0.2c0.2,3.6,0.3,7.4,0.3,11.8v8.1H192z"/>
	<path clip-path="url(#SVGID_2_)" fill="#55565A" d="M222,30.5c2.2-0.4,5.2-0.6,8.2-0.6c5.2,0,8.5,0.8,11.1,2.8
		c2.8,2.1,4.6,5.4,4.6,10.2c0,5.2-1.9,8.7-4.4,10.9c-2.8,2.4-7.2,3.5-12.5,3.5c-3.1,0-5.4-0.2-6.9-0.4V30.5z M228,52.5
		c0.5,0.1,1.4,0.1,2.1,0.1c5.6,0,9.2-3,9.2-9.4c0-5.8-3.3-8.5-8.5-8.5c-1.3,0-2.2,0.1-2.7,0.2V52.5z"/>
	<path clip-path="url(#SVGID_2_)" fill="#55565A" d="M320.5,46.8c-0.1-3.2-0.2-7.1-0.2-11.1h-0.1c-0.9,3.4-2,7.3-3,10.4l-3.3,10.5
		h-4.8l-2.9-10.4c-0.9-3.2-1.8-7-2.4-10.6h-0.1c-0.1,3.6-0.3,7.8-0.4,11.1l-0.6,10.2h-5.6l1.7-26.9h8.1l2.6,9
		c0.9,3.1,1.7,6.4,2.3,9.6h0.2c0.7-3.1,1.6-6.6,2.5-9.7l2.8-9h8l1.5,26.9h-5.9L320.5,46.8z"/>
	<polygon clip-path="url(#SVGID_2_)" fill="#55565A" points="349.9,45.7 340,45.7 340,52.1 351.1,52.1 351.1,57.1 334,57.1 
		334,30.1 350.5,30.1 350.5,35.1 340,35.1 340,40.7 349.9,40.7 	"/>
	<path clip-path="url(#SVGID_2_)" fill="#55565A" d="M357.6,30.5c2.2-0.4,5.2-0.6,8.2-0.6c5.2,0,8.5,0.8,11.1,2.8
		c2.8,2.1,4.6,5.4,4.6,10.2c0,5.2-1.9,8.7-4.5,10.9c-2.8,2.4-7.2,3.5-12.5,3.5c-3.2,0-5.4-0.2-6.9-0.4V30.5z M363.7,52.5
		c0.5,0.1,1.4,0.1,2.1,0.1c5.6,0,9.2-3,9.2-9.4c0-5.8-3.3-8.5-8.6-8.5c-1.3,0-2.2,0.1-2.7,0.2V52.5z"/>
	<rect x="387.9" y="30.1" clip-path="url(#SVGID_2_)" fill="#55565A" width="6.1" height="26.9"/>
	<path clip-path="url(#SVGID_2_)" fill="#55565A" d="M407.9,50.1l-1.9,6.9h-6.3l8.2-26.9h7.9l8.4,26.9h-6.6l-2.1-6.9H407.9z
		 M414.7,45.6l-1.7-5.7c-0.4-1.6-0.9-3.6-1.3-5.2h-0.1c-0.3,1.6-0.8,3.7-1.2,5.2l-1.7,5.7H414.7z"/>
	<path clip-path="url(#SVGID_2_)" fill="#FF5000" d="M257.2,37.5h2.3l4.5,11.7h-2.3l-0.9-2.4h-4.8l-1,2.4h-2.3L257.2,37.5z
		 M258.3,40.7l-1.6,4h3.1L258.3,40.7z"/>
	<polygon clip-path="url(#SVGID_2_)" fill="#FF5000" points="265.7,37.5 267.8,37.5 272.9,45.3 272.9,37.5 275.1,37.5 275.1,49.3 
		272.9,49.3 267.9,41.6 267.9,49.3 265.7,49.3 	"/>
	<path clip-path="url(#SVGID_2_)" fill="#FF5000" d="M277.8,37.5h2.6c1.7,0,3,0.2,3.8,0.6c0.8,0.4,1.5,1.1,2,2
		c0.6,1,0.8,2.1,0.8,3.3c0,0.9-0.2,1.7-0.5,2.5c-0.3,0.8-0.7,1.4-1.2,1.9c-0.5,0.5-1.1,0.8-1.7,1c-0.6,0.2-1.7,0.3-3.2,0.3h-2.7
		V37.5z M280,39.7v7.4h1c1,0,1.8-0.1,2.2-0.4c0.5-0.2,0.8-0.6,1.1-1.2c0.3-0.5,0.4-1.2,0.4-2c0-1.2-0.4-2.2-1-2.9
		c-0.6-0.6-1.6-0.9-3-0.9H280z"/>
	<rect x="252.6" y="30.3" clip-path="url(#SVGID_2_)" fill="#FF5000" width="34.4" height="2.7"/>
	<rect x="252.6" y="54.3" clip-path="url(#SVGID_2_)" fill="#FF5000" width="34.4" height="2.7"/>
	<path clip-path="url(#SVGID_2_)" fill="#FF5000" d="M326.7,66.4l-1.4,1.2c-0.5-0.7-1-1-1.5-1c-0.2,0-0.4,0.1-0.6,0.2
		c-0.1,0.1-0.2,0.3-0.2,0.4c0,0.2,0.1,0.3,0.2,0.5c0.1,0.2,0.6,0.6,1.3,1.3c0.7,0.6,1.2,1,1.3,1.1c0.4,0.4,0.6,0.7,0.8,1.1
		c0.2,0.4,0.3,0.7,0.3,1.1c0,0.8-0.3,1.5-0.9,2c-0.5,0.5-1.3,0.8-2.2,0.8c-0.7,0-1.3-0.2-1.8-0.5c-0.5-0.3-1-0.9-1.3-1.6l1.5-0.9
		c0.5,0.9,1,1.3,1.6,1.3c0.3,0,0.6-0.1,0.8-0.3c0.2-0.2,0.3-0.4,0.3-0.6c0-0.2-0.1-0.4-0.3-0.7c-0.2-0.2-0.5-0.6-1.1-1
		c-1.1-0.9-1.7-1.5-2.1-2c-0.3-0.5-0.5-0.9-0.5-1.4c0-0.7,0.3-1.3,0.8-1.8c0.5-0.5,1.1-0.7,1.9-0.7c0.5,0,1,0.1,1.4,0.3
		C325.7,65.4,326.2,65.8,326.7,66.4"/>
	<path clip-path="url(#SVGID_2_)" fill="#FF5000" d="M337.3,64.8c1.4,0,2.6,0.5,3.6,1.5c1,1,1.5,2.2,1.5,3.7c0,1.4-0.5,2.6-1.5,3.6
		c-1,1-2.2,1.5-3.6,1.5c-1.5,0-2.7-0.5-3.7-1.5c-1-1-1.5-2.2-1.5-3.6c0-0.9,0.2-1.8,0.7-2.6c0.5-0.8,1.1-1.4,1.9-1.9
		C335.6,65,336.4,64.8,337.3,64.8 M337.3,66.6c-0.9,0-1.7,0.3-2.3,0.9c-0.6,0.6-0.9,1.4-0.9,2.4c0,1.1,0.4,1.9,1.2,2.6
		c0.6,0.5,1.3,0.7,2.1,0.7c0.9,0,1.6-0.3,2.3-0.9c0.6-0.6,0.9-1.4,0.9-2.4c0-0.9-0.3-1.7-0.9-2.4C339,67,338.2,66.6,337.3,66.6"/>
	<polygon clip-path="url(#SVGID_2_)" fill="#FF5000" points="348.3,65.1 350.1,65.1 350.1,73.1 352.8,73.1 352.8,74.8 348.3,74.8 	
		"/>
	<path clip-path="url(#SVGID_2_)" fill="#FF5000" d="M358.3,65.1h1.9v6.3c0,0.5,0,0.9,0.1,1.1c0.1,0.2,0.2,0.4,0.5,0.5
		c0.2,0.1,0.5,0.2,0.8,0.2c0.3,0,0.6-0.1,0.8-0.2c0.2-0.2,0.4-0.3,0.5-0.6c0.1-0.2,0.1-0.7,0.1-1.3v-6.1h1.9v5.8
		c0,1-0.1,1.7-0.2,2.1c-0.1,0.4-0.3,0.7-0.6,1.1c-0.3,0.3-0.7,0.6-1.1,0.8c-0.4,0.2-0.9,0.3-1.4,0.3c-0.7,0-1.3-0.2-1.9-0.5
		c-0.5-0.3-0.9-0.7-1.1-1.2c-0.2-0.5-0.3-1.3-0.3-2.5V65.1z"/>
	<polygon clip-path="url(#SVGID_2_)" fill="#FF5000" points="370.2,65.1 375.6,65.1 375.6,66.9 373.8,66.9 373.8,74.8 371.9,74.8 
		371.9,66.9 370.2,66.9 	"/>
	<rect x="380.8" y="65.1" clip-path="url(#SVGID_2_)" fill="#FF5000" width="1.8" height="9.8"/>
	<path clip-path="url(#SVGID_2_)" fill="#FF5000" d="M393.5,64.8c1.4,0,2.6,0.5,3.6,1.5c1,1,1.5,2.2,1.5,3.7c0,1.4-0.5,2.6-1.5,3.6
		c-1,1-2.2,1.5-3.6,1.5c-1.5,0-2.7-0.5-3.7-1.5c-1-1-1.4-2.2-1.4-3.6c0-0.9,0.2-1.8,0.7-2.6c0.5-0.8,1.1-1.4,1.9-1.9
		C391.7,65,392.6,64.8,393.5,64.8 M393.5,66.6c-0.9,0-1.7,0.3-2.3,0.9c-0.6,0.6-0.9,1.4-0.9,2.4c0,1.1,0.4,1.9,1.2,2.6
		c0.6,0.5,1.3,0.7,2.1,0.7c0.9,0,1.6-0.3,2.3-0.9c0.6-0.6,0.9-1.4,0.9-2.4c0-0.9-0.3-1.7-0.9-2.4C395.1,67,394.4,66.6,393.5,66.6"/>
	<polygon clip-path="url(#SVGID_2_)" fill="#FF5000" points="404.4,65.1 406.2,65.1 410.4,71.5 410.4,65.1 412.2,65.1 412.2,74.8 
		410.4,74.8 406.3,68.4 406.3,74.8 404.4,74.8 	"/>
	<path clip-path="url(#SVGID_2_)" fill="#FF5000" d="M423.7,66.4l-1.4,1.2c-0.5-0.7-1-1-1.5-1c-0.2,0-0.5,0.1-0.6,0.2
		c-0.2,0.1-0.2,0.3-0.2,0.4c0,0.2,0.1,0.3,0.2,0.5c0.2,0.2,0.6,0.6,1.4,1.3c0.7,0.6,1.1,1,1.3,1.1c0.4,0.4,0.6,0.7,0.8,1.1
		c0.2,0.4,0.2,0.7,0.2,1.1c0,0.8-0.3,1.5-0.8,2c-0.5,0.5-1.3,0.8-2.2,0.8c-0.7,0-1.3-0.2-1.8-0.5c-0.5-0.3-1-0.9-1.3-1.6l1.6-0.9
		c0.5,0.9,1,1.3,1.6,1.3c0.3,0,0.6-0.1,0.8-0.3c0.2-0.2,0.3-0.4,0.3-0.6c0-0.2-0.1-0.4-0.2-0.7c-0.2-0.2-0.5-0.6-1.1-1
		c-1.1-0.9-1.8-1.5-2.1-2c-0.3-0.5-0.5-0.9-0.5-1.4c0-0.7,0.3-1.3,0.8-1.8c0.5-0.5,1.1-0.7,1.9-0.7c0.5,0,1,0.1,1.4,0.3
		C422.7,65.4,423.2,65.8,423.7,66.4"/>
</g>
</svg>
